<svg width="512" height="512" viewBox="0 0 512 511" fill="none" xmlns="http://www.w3.org/2000/svg">
<path d="M118.054 160.477C132.791 145.751 156.683 145.751 171.419 160.477C186.155 175.202 186.155 199.078 171.419 213.803L101.562 283.611C66.7713 318.377 66.7715 374.744 101.562 409.51C136.421 444.343 192.96 444.267 227.723 409.338L231.645 405.398C246.341 390.633 270.232 390.566 285.009 405.251C299.785 419.936 299.851 443.812 285.155 458.578L281.234 462.518C217.023 527.036 112.586 527.179 48.1975 462.837C-16.0658 398.619 -16.0659 294.502 48.1975 230.284L118.054 160.477ZM321.913 121.642C327.245 116.601 335.613 122.618 332.546 129.287L285.875 230.794C283.841 235.217 287.068 240.262 291.931 240.262H334.736C340.714 240.262 343.67 247.533 339.393 251.714L198.619 389.321C193.465 394.359 185.098 388.766 187.77 382.067L227.032 283.628C228.781 279.244 225.557 274.477 220.842 274.476H177.033C171.001 274.476 168.07 267.093 172.456 262.946L321.913 121.642ZM230.316 48.2945C294.756 -16.098 399.232 -16.0983 463.671 48.2945C527.912 112.49 528.138 216.502 464.177 280.976L381.798 364.015C367.126 378.804 343.235 378.908 328.435 364.247C313.635 349.586 313.53 325.71 328.202 310.92L410.581 227.882C445.288 192.896 445.165 136.456 410.306 101.621C375.339 66.6799 318.647 66.6798 283.68 101.621L272.547 112.747C257.81 127.472 233.919 127.473 219.183 112.747C204.447 98.0214 204.447 74.146 219.183 59.4202L230.316 48.2945Z" fill="url(#paint0_linear_20_38)"/>
<defs>
<linearGradient id="paint0_linear_20_38" x1="256" y1="0" x2="256" y2="511" gradientUnits="userSpaceOnUse">
<stop offset="0.15" stop-color="#FF285A"/>
<stop offset="0.85" stop-color="#6817D0"/>
</linearGradient>
</defs>
</svg>
